# xmcd
#
# Track frame offsets: 
#        150
#        18055
#        35007
#        69676
#
# Disc length: 1841 seconds
#
# Revision: 2
# Processed by: cddbd v1.5.2PL0 Copyright (c) Steve Scherf et al.
# Submitted via: ExactAudioCopy v0.99pb4
#
DISCID=2c072f04
DTITLE=Grand Drive - Mabe I'm a Winner EP
DYEAR=2005
DGENRE=Country
TTITLE0=Mabe I'm a Winner
TTITLE1=I Want You (and I'm Right)
TTITLE2=I'll Be There for You
TTITLE3=Data Track
EXTD=
EXTT0=
EXTT1=
EXTT2=
EXTT3=
PLAYORDER=
